ffmpeg started on 2016-11-28 at 09:15:26
Report written to "Output/NVENCh264/results/ffmpeg/sintelllhp15000k.log"
Command line:
Tools/ffmpeg/ffmpeg -benchmark -y -i Input/y4m/sintel.y4m -c:v h264_nvenc -preset llhp -b:v 15000k -an Output/NVENCh264/encoded/sintelllhp15000k.mkv
ffmpeg version N-82227-gdb23fde Copyright (c) 2000-2016 the FFmpeg developers
  built with gcc 5.4.0 (Ubuntu 5.4.0-6ubuntu1~16.04.2) 20160609
  configuration: --prefix=/home/jaroslav/ffmpeg_build --pkg-config-flags=--static --extra-cflags=-I/home/jaroslav/ffmpeg_build/include --extra-ldflags=-L/home/jaroslav/ffmpeg_build/lib --bindir=/home/jaroslav/bin --enable-gpl --enable-libass --enable-libfdk-aac --enable-libfreetype --enable-libmp3lame --enable-libopus --enable-libtheora --enable-libvorbis --enable-libvpx --enable-libx264 --enable-libx265 --enable-nvenc --enable-libmfx --enable-libxvid --enable-libgsm --enable-libopencore-amrnb --enable-version3 --enable-nonfree
  libavutil      55. 35.100 / 55. 35.100
  libavcodec     57. 66.101 / 57. 66.101
  libavformat    57. 57.100 / 57. 57.100
  libavdevice    57.  2.100 / 57.  2.100
  libavfilter     6. 66.100 /  6. 66.100
  libswscale      4.  3.100 /  4.  3.100
  libswresample   2.  4.100 /  2.  4.100
  libpostproc    54.  2.100 / 54.  2.100
Input #0, yuv4mpegpipe, from 'Input/y4m/sintel.y4m':
  Duration: 00:00:20.83, start: 0.000000, bitrate: 2057307 kb/s
    Stream #0:0: Video: rawvideo (I420 / 0x30323449), yuv420p(progressive), 4096x1744, SAR 1:1 DAR 256:109, 24 fps, 24 tbr, 24 tbn, 24 tbc
[h264_nvenc @ 0x30d11c0] The variable bitrate rate-control requires the 'qmin' and/or 'qmax' option set.
Output #0, matroska, to 'Output/NVENCh264/encoded/sintelllhp15000k.mkv':
  Metadata:
    encoder         : Lavf57.57.100
    Stream #0:0: Video: h264 (h264_nvenc) (Main) (H264 / 0x34363248), yuv420p, 4096x1744 [SAR 1:1 DAR 256:109], q=-1--1, 15000 kb/s, 24 fps, 1k tbn, 24 tbc
    Metadata:
      encoder         : Lavc57.66.101 h264_nvenc
    Side data:
      cpb: bitrate max/min/avg: 0/0/15000000 buffer size: 30000000 vbv_delay: -1
Stream mapping:
  Stream #0:0 -> #0:0 (rawvideo (native) -> h264 (h264_nvenc))
Press [q] to stop, [?] for help
frame=   19 fps=0.0 q=0.0 size=       0kB time=00:00:00.00 bitrate=N/A speed=   0x    frame=   40 fps= 39 q=31.0 size=       1kB time=00:00:00.37 bitrate=  15.9kbits/s speed=0.368x    frame=   61 fps= 40 q=30.0 size=       1kB time=00:00:01.25 bitrate=   4.8kbits/s speed=0.816x    frame=   82 fps= 40 q=28.0 size=       1kB time=00:00:02.12 bitrate=   2.8kbits/s speed=1.04x    frame=  102 fps= 40 q=26.0 size=    5153kB time=00:00:02.95 bitrate=14265.5kbits/s speed=1.16x    frame=  123 fps= 40 q=25.0 size=    5153kB time=00:00:03.83 bitrate=11009.8kbits/s speed=1.25x    frame=  144 fps= 40 q=23.0 size=    5153kB time=00:00:04.70 bitrate=8964.0kbits/s speed=1.31x    frame=  164 fps= 26 q=28.0 size=    8806kB time=00:00:05.54 bitrate=13014.7kbits/s speed=0.866x    frame=  165 fps= 17 q=28.0 size=    8806kB time=00:00:05.58 bitrate=12919.2kbits/s speed=0.587x    frame=  166 fps= 13 q=28.0 size=    8806kB time=00:00:05.62 bitrate=12822.7kbits/s speed=0.444x    frame=  167 fps= 12 q=28.0 size=    8806kB time=00:00:05.66 bitrate=12727.7kbits/s speed=0.422x    frame=  188 fps= 13 q=27.0 size=    8806kB time=00:00:06.54 bitrate=11025.6kbits/s speed=0.469x    frame=  209 fps= 14 q=25.0 size=    8806kB time=00:00:07.41 bitrate=9725.1kbits/s speed=0.513x    frame=  229 fps= 15 q=24.0 size=   13953kB time=00:00:08.25 bitrate=13853.7kbits/s speed=0.552x    frame=  250 fps= 16 q=28.0 size=   13953kB time=00:00:09.12 bitrate=12525.4kbits/s speed=0.59x    frame=  271 fps= 17 q=25.0 size=   13953kB time=00:00:10.00 bitrate=11429.5kbits/s speed=0.626x    frame=  291 fps= 18 q=23.0 size=   19154kB time=00:00:10.83 bitrate=14482.9kbits/s speed=0.657x    frame=  312 fps= 18 q=25.0 size=   20185kB time=00:00:11.70 bitrate=14122.3kbits/s speed=0.688x    frame=  333 fps= 19 q=24.0 size=   20185kB time=00:00:12.58 bitrate=13140.3kbits/s speed=0.718x    frame=  354 fps= 20 q=22.0 size=   20185kB time=00:00:13.45 bitrate=12286.0kbits/s speed=0.746x    frame=  374 fps= 20 q=21.0 size=   25337kB time=00:00:14.29 bitrate=14521.9kbits/s speed=0.771x    frame=  395 fps= 21 q=23.0 size=   25337kB time=00:00:15.16 bitrate=13684.2kbits/s speed=0.796x    frame=  416 fps= 21 q=20.0 size=   25337kB time=00:00:16.04 bitrate=12937.9kbits/s speed=0.82x    frame=  436 fps= 22 q=26.0 size=   30514kB time=00:00:16.87 bitrate=14812.2kbits/s speed=0.841x    frame=  457 fps= 22 q=25.0 size=   32095kB time=00:00:17.75 bitrate=14811.6kbits/s speed=0.862x    frame=  478 fps= 23 q=26.0 size=   32095kB time=00:00:18.62 bitrate=14115.8kbits/s speed=0.882x    frame=  498 fps= 23 q=25.0 size=   32095kB time=00:00:19.45 bitrate=13511.5kbits/s speed=0.893x    frame=  500 fps= 23 q=26.0 Lsize=   38370kB time=00:00:20.79 bitrate=15116.9kbits/s speed=0.95x    
video:38365kB audio:0kB subtitle:0kB other streams:0kB global headers:0kB muxing overhead: 0.012852%
bench: utime=1.028s
bench: maxrss=1195824kB
